<?xml version="1.0" standalone="no"?>
<!DOCTYPE svg PUBLIC "-//W3C//DTD SVG 20010904//EN"
 "http://www.w3.org/TR/2001/REC-SVG-20010904/DTD/svg10.dtd">
<svg version="1.0" xmlns="http://www.w3.org/2000/svg"
 width="700.000000pt" height="700.000000pt" viewBox="0 0 700.000000 700.000000"
 preserveAspectRatio="xMidYMid meet">
<metadata>
Created by potrace 1.11, written by Peter Selinger 2001-2013
</metadata>
<g transform="translate(0.000000,700.000000) scale(0.100000,-0.100000)"
fill="#000000" stroke="none">
<path d="M1340 6990 c-25 -4 -63 -11 -85 -14 -65 -11 -155 -35 -245 -68 -609
-218 -1019 -809 -1005 -1448 3 -154 17 -226 73 -390 104 -302 333 -706 633
-1115 l88 -120 -75 -330 c-40 -182 -77 -346 -80 -365 -3 -19 -7 -37 -9 -40 -3
-5 -154 -677 -236 -1050 -32 -147 -85 -385 -152 -690 -73 -328 -154 -696 -161
-732 -2 -13 -11 -53 -20 -91 -9 -37 -18 -81 -21 -99 -3 -17 -8 -34 -10 -38 -2
-4 -7 -22 -10 -41 -3 -19 -11 -53 -17 -76 -25 -100 24 -217 108 -259 38 -19
110 -19 3374 -22 l3335 -2 51 25 c107 53 144 149 109 284 -8 31 -16 70 -19 86
-7 38 -11 54 -31 140 -9 39 -25 109 -36 158 -53 247 -206 935 -226 1017 -8 36
-17 76 -19 89 -3 12 -12 53 -20 90 -9 36 -18 75 -20 86 -7 39 -81 371 -95 430
-12 52 -148 664 -153 690 -2 11 -11 50 -20 88 -9 37 -18 79 -21 95 -3 15 -7
36 -9 47 -3 11 -26 112 -51 225 -26 113 -49 216 -51 230 -3 14 -16 72 -29 130
-13 58 -27 120 -30 139 -3 19 -8 38 -11 42 -2 4 -7 27 -10 50 -15 102 -52 165
-122 206 l-47 28 -1658 1 c-911 0 -1658 2 -1659 5 -1 2 22 47 52 99 258 448
363 741 361 1006 -1 110 -3 133 -22 249 -37 224 -139 459 -283 655 -60 82
-230 249 -320 315 -104 75 -278 167 -402 210 -168 58 -286 77 -479 80 -93 1
-190 -1 -215 -5z"/>
</g>
</svg>
